# xmcd CD database file generated by Grip 3.2.0
# 
# Track frame offsets:
#       150
#       28817
#       54292
#       79465
#       98822
#       127055
#       168175
#       195015
#       217100
#       238155
#       258675
#       283227
#       310377
# 
# Disc length: 4675 seconds
# 
# Revision: 1
# Processed by: cddbd v1.5.2PL0 Copyright (c) Steve Scherf et al.
# Submitted via: Grip 3.2.0
# 
DISCID=c012410d
DTITLE=Various Artist - Svensk Jazzhistoria vol 10
DYEAR=1965
DGENRE=Jazz
TTITLE0=Bengt Hallbergs orkester - S:t Örjanslåten
TTITLE1=Jan Johanssons kvintett - Lapp-Nils polska
TTITLE2=Bengt-Arne Wallins orkester - Hårgalåten
TTITLE3=Georg Riedels orkester - Gubben u källinge tonte sej yver gärdi
TTITLE4=Eje Thelin and Bengt Hallbergs kvartett - My favorite things
TTITLE5=Bosse Broberg and Lennart Åbergs kvintett - What's this
TTITLE6=Bengt Ernryd and Jan Wallgrens kvartett - Bhairavi
TTITLE7=Gunnar Fors kvintett - Half and half
TTITLE8=Böje Fredrikssons kvartett - Ballad för Laila
TTITLE9=Börje Fredrikssons kvintett - Prinsessans brudvals
TTITLE10=Eje Thelins kvartett - Not at all
TTITLE11=Nisse Sandströms kvartett - Vår i Danmark
TTITLE12=Arne Domenérus orkester - Mobil
EXTD=YEAR: 1965
EXTT0=
EXTT1=
EXTT2=
EXTT3=
EXTT4=
EXTT5=
EXTT6=
EXTT7=
EXTT8=
EXTT9=
EXTT10=
EXTT11=
EXTT12=
PLAYORDER=
